<svg version="1.1" id="Layer_1" xmlns="http://www.w3.org/2000/svg" x="0" y="0" viewBox="0 0 500 500" style="enable-background:new 0 0 500 500" xml:space="preserve"><style>.st3{fill:#ecf4f7}</style><path d="M469.127 242.636c4.14-8.35 2.304-18.558-4.745-24.655l-.151-.13L317.553 93.004c-10.515-8.947-26.293-7.681-35.242 2.834a24.871 24.871 0 0 0-5.771 13.14c36.857 9.875 65.52 39.818 73.607 77.429l62.572 53.259-65.967 117.518a13.848 13.848 0 0 1-12.076 7.07h-25.191c-9.045 7.992-32.261 13.681-59.485 13.681s-50.44-5.688-59.485-13.681h-25.191a13.847 13.847 0 0 1-12.076-7.07L87.281 239.666l62.572-53.259c8.087-37.61 36.75-67.554 73.607-77.429a24.886 24.886 0 0 0-5.771-13.14c-8.949-10.515-24.727-11.781-35.242-2.834L35.769 217.851a9.384 9.384 0 0 0-.151.13c-7.05 6.097-8.886 16.305-4.745 24.655l94.823 191.239a21.578 21.578 0 0 1 2.379 9.848V495h243.853v-51.276c0-3.425.815-6.801 2.379-9.848l94.82-191.24z" style="fill:#83e1e5"/><ellipse cx="250" cy="356.83" rx="63.539" ry="21.104" style="fill:#aab1ba"/><path d="m368.003 135.946-50.45-42.941c-10.515-8.947-26.293-7.681-35.242 2.834a24.876 24.876 0 0 0-5.771 13.139 102.438 102.438 0 0 0-26.54-3.484 102.43 102.43 0 0 0-26.576 3.494l.036-.01a24.88 24.88 0 0 0-5.771-13.139c-8.949-10.515-24.727-11.781-35.242-2.834l-50.45 42.941 25.675 27.637c-6.487 13.469-10.123 28.574-10.123 44.53 0 56.675 45.869 102.619 102.451 102.619 56.582 0 102.451-45.944 102.451-102.619 0-15.956-3.636-31.062-10.123-44.53l25.675-27.637z" style="fill:#fddf7f"/><circle class="st3" cx="206.372" cy="176.934" r="17.988"/><circle class="st3" cx="293.628" cy="176.934" r="17.988"/><path d="M206.372 199.922c12.675 0 22.987-10.313 22.987-22.987 0-12.676-10.313-22.988-22.987-22.988s-22.987 10.313-22.987 22.988c0 12.674 10.312 22.987 22.987 22.987zm0-35.976c7.161 0 12.987 5.826 12.987 12.988 0 7.161-5.826 12.987-12.987 12.987s-12.987-5.826-12.987-12.987c0-7.162 5.826-12.988 12.987-12.988zm87.256 35.976c12.675 0 22.987-10.313 22.987-22.987 0-12.676-10.313-22.988-22.987-22.988s-22.987 10.313-22.987 22.988c0 12.674 10.312 22.987 22.987 22.987zm0-35.976c7.161 0 12.987 5.826 12.987 12.988 0 7.161-5.826 12.987-12.987 12.987s-12.987-5.826-12.987-12.987c0-7.162 5.826-12.988 12.987-12.988zm57.484 195.685 65.967-117.518a5 5 0 0 0-1.119-6.255l-61.304-52.18C343.578 136.069 300.86 100.493 250 100.493c-50.861 0-93.579 35.576-104.656 83.187L84.04 235.858a5 5 0 0 0-1.119 6.255l65.967 117.518a18.873 18.873 0 0 0 16.437 9.623h20.19v21.318c0 2.762 2.238 5 5 5s5-2.238 5-5v-17.288c13.188 6.371 33.906 9.65 54.485 9.65s41.298-3.279 54.485-9.65v17.288c0 2.762 2.238 5 5 5s5-2.238 5-5v-21.318h20.19a18.875 18.875 0 0 0 16.437-9.623zM250 110.493c53.734 0 97.451 43.792 97.451 97.62 0 53.827-43.717 97.619-97.451 97.619s-97.451-43.792-97.451-97.619c0-53.828 43.717-97.62 97.451-97.62zm0 262.442c-37.877 0-58.539-10.639-58.539-16.104s20.662-16.104 58.539-16.104 58.539 10.638 58.539 16.104-20.662 16.104-58.539 16.104zm84.676-13.681h-16.399a12.4 12.4 0 0 0 .262-2.424c0-17.137-34.479-26.104-68.539-26.104s-68.539 8.967-68.539 26.104c0 .829.104 1.633.262 2.424h-16.399a8.86 8.86 0 0 1-7.716-4.518l-63.953-113.93 49.296-41.959a108.798 108.798 0 0 0-.403 9.266c0 59.342 48.202 107.619 107.451 107.619S357.45 267.455 357.45 208.113c0-3.121-.141-6.21-.403-9.265l49.296 41.958-63.953 113.93a8.856 8.856 0 0 1-7.714 4.518zM162.104 495a5 5 0 0 1-5 5H76.96c-2.762 0-5-2.238-5-5s2.238-5 5-5h80.144a5 5 0 0 1 5 5zM64.8 495a5 5 0 0 1-5 5h-3.813c-2.762 0-5-2.238-5-5s2.238-5 5-5H59.8a5 5 0 0 1 5 5zm363.24 0a5 5 0 0 1-5 5h-80.144c-2.762 0-5-2.238-5-5s2.238-5 5-5h80.144a5 5 0 0 1 5 5zm20.973 0a5 5 0 0 1-5 5H440.2c-2.762 0-5-2.238-5-5s2.238-5 5-5h3.813a5 5 0 0 1 5 5zM283.631 16.534a5 5 0 0 1 5-5h6.534V5c0-2.762 2.238-5 5-5s5 2.238 5 5v6.534h6.535c2.762 0 5 2.238 5 5s-2.238 5-5 5h-6.535v6.535c0 2.762-2.238 5-5 5s-5-2.238-5-5v-6.535h-6.534a5 5 0 0 1-5-5zm-50.165 0a5 5 0 0 1 5-5H245V5c0-2.762 2.238-5 5-5s5 2.238 5 5v6.534h6.534c2.762 0 5 2.238 5 5s-2.238 5-5 5H255v6.535c0 2.762-2.238 5-5 5s-5-2.238-5-5v-6.535h-6.534a5 5 0 0 1-5-5zm-50.166 0a5 5 0 0 1 5-5h6.535V5c0-2.762 2.238-5 5-5s5 2.238 5 5v6.534h6.534c2.762 0 5 2.238 5 5s-2.238 5-5 5h-6.534v6.535c0 2.762-2.238 5-5 5s-5-2.238-5-5v-6.535H188.3a5 5 0 0 1-5-5zM230.881 245h38.238c2.762 0 5 2.238 5 5s-2.238 5-5 5h-38.238c-2.762 0-5-2.238-5-5s2.238-5 5-5zm242.726-.144-94.823 191.239a16.727 16.727 0 0 0-1.858 7.628v32.935c0 2.762-2.238 5-5 5s-5-2.238-5-5v-32.935a26.71 26.71 0 0 1 2.93-12.131l94.793-191.178c3.186-6.426 1.73-14.096-3.537-18.653l-.11-.093-92.594-78.813-9.585 10.317a4.984 4.984 0 0 1-3.664 1.597 5 5 0 0 1-3.662-8.403l9.289-9.998-46.474-39.557c-7.813-6.651-19.657-6.236-26.961.944a4.999 4.999 0 0 1-7.071-.062 5 5 0 0 1 .062-7.071c11.146-10.953 28.535-11.568 40.452-1.427l146.855 124.997c8.721 7.546 11.169 20.154 5.958 30.664zM121.246 436.157 26.393 244.856c-5.211-10.511-2.763-23.118 5.955-30.657l.192-.165L179.206 89.197c11.784-10.027 29.603-9.352 40.567 1.539a5 5 0 0 1-7.047 7.095c-7.307-7.258-19.184-7.704-27.039-1.02l-46.473 39.557 9.289 9.998a4.998 4.998 0 0 1-3.662 8.403 4.982 4.982 0 0 1-3.664-1.597l-9.585-10.317-92.708 78.91c-5.264 4.553-6.719 12.223-3.533 18.648l94.823 191.239c1.886 3.676 2.899 7.87 2.899 12.069v32.935c0 2.762-2.238 5-5 5s-5-2.238-5-5v-32.935a16.631 16.631 0 0 0-1.827-7.564z" style="fill:#1c1d21"/></svg>