<svg xmlns="http://www.w3.org/2000/svg" viewBox="0 0 64 64"><defs><style>.cls-1{fill:#272835}</style></defs><g id="_3-Answer" data-name="3-Answer"><path class="cls-1" d="M60 0H16a4 4 0 0 0-4 4v17h2V4a2 2 0 0 1 2-2h44a2 2 0 0 1 2 2v30a2 2 0 0 1-2 2H45a1 1 0 0 0-.71.29L34 46.59V37a1 1 0 0 0-1-1H23v2h9v11a1 1 0 0 0 1.71.71L45.41 38H60a4 4 0 0 0 4-4V4a4 4 0 0 0-4-4z"/><path class="cls-1" d="M47 31V16a9 9 0 0 0-18 0v15h2v-9h14v9zM31 20v-4a7 7 0 0 1 14 0v4zM19 7h3V5h-4a1 1 0 0 0-1 1v4h2zM17 12h2v2h-2zM24.89 46.55a1 1 0 0 0-.5-.47l-6.63-2.87-.54-1.67A8.2 8.2 0 0 0 20 35v-8a1 1 0 0 0-.29-.71A9.73 9.73 0 0 0 13 24a9.73 9.73 0 0 0-6.71 2.29A1 1 0 0 0 6 27v8a8.2 8.2 0 0 0 2.77 6.54l-.54 1.67-6.63 2.87a1 1 0 0 0-.5.47l-1 2A1 1 0 0 0 0 49v15h2V49.24l.73-1.46 6-2.61L12 48.41V52h2v-3.59l3.25-3.25 6 2.61.75 1.47V64h2V49a1 1 0 0 0-.11-.45zM8 27.47A8.31 8.31 0 0 1 13 26a8.31 8.31 0 0 1 5 1.47v4.39c-.5-.13-1-.38-1-.86a1 1 0 0 0-1-1h-6a1 1 0 0 0-1 1c0 .47-.5.72-1 .86zm5 19.12-2.84-2.84.38-1.19a7 7 0 0 0 4.9 0l.38 1.19zM13 41c-3.69 0-5-3.23-5-6v-1.09A3.55 3.55 0 0 0 10.82 32h4.36A3.55 3.55 0 0 0 18 33.91V35c0 2.77-1.31 6-5 6z"/><path class="cls-1" d="M5 58h2v6H5zM19 58h2v6h-2z"/></g></svg>