<svg xmlns="http://www.w3.org/2000/svg" viewBox="0 0 48 48"><g data-name="26-Question"><path d="M38 48H17a1 1 0 0 1-1-1v-8c0-1.841-.857-1.989-1.028-2H9a3.888 3.888 0 0 1-4-4v-3.251A3.581 3.581 0 0 0 3 29a2.916 2.916 0 0 1-3-3 1.006 1.006 0 0 1 .124-.483L5 16.681V15A15.017 15.017 0 0 1 20 0v2A13.015 13.015 0 0 0 7 15v1.938a1.006 1.006 0 0 1-.124.483l-4.855 8.8A.878.878 0 0 0 3 27a5.771 5.771 0 0 1 3.663 1.524 1 1 0 0 1 .337.748V33a1.883 1.883 0 0 0 2 2h6c1.038 0 3 .836 3 4v7h19v-6a1 1 0 0 1 1-1c2.892 0 3.856-3.513 4-4.11V32h2v3a1 1 0 0 1-.02.2c-.364 1.823-1.854 5.121-4.98 5.712V47a1 1 0 0 1-1 1z"/><path d="M32 32a16 16 0 1 1 16-16 16.019 16.019 0 0 1-16 16zm0-30a14 14 0 1 0 14 14A14.015 14.015 0 0 0 32 2z"/><path d="M32 21h-2v-4a1.959 1.959 0 0 1 2-2h3a1 1 0 0 0 1-1v-4a1 1 0 0 0-1-1h-6a1 1 0 0 0-1 1v4h-2v-4a3 3 0 0 1 3-3h6a3 3 0 0 1 3 3v4a3 3 0 0 1-3 3h-3zM30 23h2v2h-2z"/></g></svg>